<mxfile host="app.diagrams.net" agent="Mozilla/5.0 (Macintosh; Intel Mac OS X 10.15; rv:141.0) Gecko/20100101 Firefox/141.0" version="28.1.1">
  <diagram name="Page-1" id="q3n8ZEGxXDpEtiMqKn5M">
    <mxGraphModel dx="1567" dy="911" grid="1" gridSize="10" guides="1" tooltips="1" connect="1" arrows="1" fold="1" page="1" pageScale="1" pageWidth="850" pageHeight="1100" math="0" shadow="0">
      <root>
        <mxCell id="0" />
        <mxCell id="1" parent="0" />
        <mxCell id="0xNz1WRSWrmB9gClnGDd-66" value="" style="rounded=0;whiteSpace=wrap;html=1;" vertex="1" parent="1">
          <mxGeometry x="380" y="210" width="1020" height="240" as="geometry" />
        </mxCell>
        <mxCell id="0xNz1WRSWrmB9gClnGDd-1" value="upstram" style="rounded=0;whiteSpace=wrap;html=1;" vertex="1" parent="1">
          <mxGeometry x="90" y="300" width="90" height="60" as="geometry" />
        </mxCell>
        <mxCell id="0xNz1WRSWrmB9gClnGDd-2" value="input dir" style="rounded=0;whiteSpace=wrap;html=1;" vertex="1" parent="1">
          <mxGeometry x="250" y="300" width="90" height="60" as="geometry" />
        </mxCell>
        <mxCell id="0xNz1WRSWrmB9gClnGDd-3" value="" style="endArrow=classic;html=1;rounded=0;exitX=1;exitY=0.5;exitDx=0;exitDy=0;entryX=0;entryY=0.5;entryDx=0;entryDy=0;" edge="1" parent="1" source="0xNz1WRSWrmB9gClnGDd-1" target="0xNz1WRSWrmB9gClnGDd-2">
          <mxGeometry width="50" height="50" relative="1" as="geometry">
            <mxPoint x="140" y="450" as="sourcePoint" />
            <mxPoint x="190" y="400" as="targetPoint" />
          </mxGeometry>
        </mxCell>
        <mxCell id="0xNz1WRSWrmB9gClnGDd-4" value="&lt;div&gt;sfpt&lt;/div&gt;&lt;div&gt;push&lt;/div&gt;" style="edgeLabel;html=1;align=center;verticalAlign=middle;resizable=0;points=[];" vertex="1" connectable="0" parent="0xNz1WRSWrmB9gClnGDd-3">
          <mxGeometry x="0.12" y="-2" relative="1" as="geometry">
            <mxPoint x="-5" y="-2" as="offset" />
          </mxGeometry>
        </mxCell>
        <mxCell id="0xNz1WRSWrmB9gClnGDd-5" value="read from input" style="rounded=1;whiteSpace=wrap;html=1;" vertex="1" parent="1">
          <mxGeometry x="400" y="300" width="80" height="60" as="geometry" />
        </mxCell>
        <mxCell id="0xNz1WRSWrmB9gClnGDd-64" value="" style="group" vertex="1" connectable="0" parent="1">
          <mxGeometry x="525" y="260" width="830" height="150" as="geometry" />
        </mxCell>
        <mxCell id="0xNz1WRSWrmB9gClnGDd-36" value="" style="group" vertex="1" connectable="0" parent="0xNz1WRSWrmB9gClnGDd-64">
          <mxGeometry x="40" y="60" width="790" height="90" as="geometry" />
        </mxCell>
        <mxCell id="0xNz1WRSWrmB9gClnGDd-37" value="" style="strokeWidth=2;html=1;shape=mxgraph.flowchart.direct_data;whiteSpace=wrap;" vertex="1" parent="0xNz1WRSWrmB9gClnGDd-36">
          <mxGeometry width="590" height="90" as="geometry" />
        </mxCell>
        <mxCell id="0xNz1WRSWrmB9gClnGDd-38" value="verify checksum" style="rounded=1;whiteSpace=wrap;html=1;" vertex="1" parent="0xNz1WRSWrmB9gClnGDd-36">
          <mxGeometry x="30" y="20" width="90" height="60" as="geometry" />
        </mxCell>
        <mxCell id="0xNz1WRSWrmB9gClnGDd-39" value="unpack" style="rounded=1;whiteSpace=wrap;html=1;" vertex="1" parent="0xNz1WRSWrmB9gClnGDd-36">
          <mxGeometry x="150" y="20" width="60" height="60" as="geometry" />
        </mxCell>
        <mxCell id="0xNz1WRSWrmB9gClnGDd-40" value="verify content" style="rounded=1;whiteSpace=wrap;html=1;" vertex="1" parent="0xNz1WRSWrmB9gClnGDd-36">
          <mxGeometry x="240" y="20" width="60" height="60" as="geometry" />
        </mxCell>
        <mxCell id="0xNz1WRSWrmB9gClnGDd-41" value="order" style="rounded=1;whiteSpace=wrap;html=1;" vertex="1" parent="0xNz1WRSWrmB9gClnGDd-36">
          <mxGeometry x="330" y="20" width="60" height="60" as="geometry" />
        </mxCell>
        <mxCell id="0xNz1WRSWrmB9gClnGDd-42" value="send to cloud" style="rounded=1;whiteSpace=wrap;html=1;" vertex="1" parent="0xNz1WRSWrmB9gClnGDd-36">
          <mxGeometry x="420" y="20" width="60" height="60" as="geometry" />
        </mxCell>
        <mxCell id="0xNz1WRSWrmB9gClnGDd-43" value="" style="endArrow=classic;html=1;rounded=0;exitX=1;exitY=0.5;exitDx=0;exitDy=0;entryX=0;entryY=0.5;entryDx=0;entryDy=0;" edge="1" parent="0xNz1WRSWrmB9gClnGDd-36" source="0xNz1WRSWrmB9gClnGDd-38" target="0xNz1WRSWrmB9gClnGDd-39">
          <mxGeometry width="50" height="50" relative="1" as="geometry">
            <mxPoint x="130" as="sourcePoint" />
            <mxPoint x="180" y="-50" as="targetPoint" />
          </mxGeometry>
        </mxCell>
        <mxCell id="0xNz1WRSWrmB9gClnGDd-44" value="" style="endArrow=classic;html=1;rounded=0;exitX=1;exitY=0.5;exitDx=0;exitDy=0;entryX=0;entryY=0.5;entryDx=0;entryDy=0;" edge="1" parent="0xNz1WRSWrmB9gClnGDd-36" source="0xNz1WRSWrmB9gClnGDd-39" target="0xNz1WRSWrmB9gClnGDd-40">
          <mxGeometry width="50" height="50" relative="1" as="geometry">
            <mxPoint x="270" y="210" as="sourcePoint" />
            <mxPoint x="320" y="160" as="targetPoint" />
          </mxGeometry>
        </mxCell>
        <mxCell id="0xNz1WRSWrmB9gClnGDd-45" value="" style="endArrow=classic;html=1;rounded=0;exitX=1;exitY=0.5;exitDx=0;exitDy=0;entryX=0;entryY=0.5;entryDx=0;entryDy=0;" edge="1" parent="0xNz1WRSWrmB9gClnGDd-36" source="0xNz1WRSWrmB9gClnGDd-40" target="0xNz1WRSWrmB9gClnGDd-41">
          <mxGeometry width="50" height="50" relative="1" as="geometry">
            <mxPoint x="270" y="210" as="sourcePoint" />
            <mxPoint x="320" y="160" as="targetPoint" />
          </mxGeometry>
        </mxCell>
        <mxCell id="0xNz1WRSWrmB9gClnGDd-46" value="" style="endArrow=classic;html=1;rounded=0;exitX=1;exitY=0.5;exitDx=0;exitDy=0;entryX=0;entryY=0.5;entryDx=0;entryDy=0;" edge="1" parent="0xNz1WRSWrmB9gClnGDd-36" source="0xNz1WRSWrmB9gClnGDd-41" target="0xNz1WRSWrmB9gClnGDd-42">
          <mxGeometry width="50" height="50" relative="1" as="geometry">
            <mxPoint x="270" y="210" as="sourcePoint" />
            <mxPoint x="320" y="160" as="targetPoint" />
          </mxGeometry>
        </mxCell>
        <mxCell id="0xNz1WRSWrmB9gClnGDd-47" value="" style="ellipse;shape=cloud;whiteSpace=wrap;html=1;" vertex="1" parent="0xNz1WRSWrmB9gClnGDd-36">
          <mxGeometry x="670" width="120" height="80" as="geometry" />
        </mxCell>
        <mxCell id="0xNz1WRSWrmB9gClnGDd-48" value="" style="endArrow=classic;html=1;rounded=0;exitX=1;exitY=0.5;exitDx=0;exitDy=0;exitPerimeter=0;entryX=0.16;entryY=0.55;entryDx=0;entryDy=0;entryPerimeter=0;" edge="1" parent="0xNz1WRSWrmB9gClnGDd-36" source="0xNz1WRSWrmB9gClnGDd-37" target="0xNz1WRSWrmB9gClnGDd-47">
          <mxGeometry width="50" height="50" relative="1" as="geometry">
            <mxPoint x="270" y="210" as="sourcePoint" />
            <mxPoint x="320" y="160" as="targetPoint" />
          </mxGeometry>
        </mxCell>
        <mxCell id="0xNz1WRSWrmB9gClnGDd-49" value="push to cloud" style="edgeLabel;html=1;align=center;verticalAlign=middle;resizable=0;points=[];" vertex="1" connectable="0" parent="0xNz1WRSWrmB9gClnGDd-48">
          <mxGeometry x="-0.3345" y="1" relative="1" as="geometry">
            <mxPoint x="17" y="1" as="offset" />
          </mxGeometry>
        </mxCell>
        <mxCell id="0xNz1WRSWrmB9gClnGDd-35" value="" style="group" vertex="1" connectable="0" parent="0xNz1WRSWrmB9gClnGDd-64">
          <mxGeometry x="20" y="30" width="790" height="90" as="geometry" />
        </mxCell>
        <mxCell id="0xNz1WRSWrmB9gClnGDd-18" value="" style="strokeWidth=2;html=1;shape=mxgraph.flowchart.direct_data;whiteSpace=wrap;" vertex="1" parent="0xNz1WRSWrmB9gClnGDd-35">
          <mxGeometry width="590" height="90" as="geometry" />
        </mxCell>
        <mxCell id="0xNz1WRSWrmB9gClnGDd-6" value="verify checksum" style="rounded=1;whiteSpace=wrap;html=1;" vertex="1" parent="0xNz1WRSWrmB9gClnGDd-35">
          <mxGeometry x="30" y="20" width="90" height="60" as="geometry" />
        </mxCell>
        <mxCell id="0xNz1WRSWrmB9gClnGDd-7" value="unpack" style="rounded=1;whiteSpace=wrap;html=1;" vertex="1" parent="0xNz1WRSWrmB9gClnGDd-35">
          <mxGeometry x="150" y="20" width="60" height="60" as="geometry" />
        </mxCell>
        <mxCell id="0xNz1WRSWrmB9gClnGDd-8" value="verify content" style="rounded=1;whiteSpace=wrap;html=1;" vertex="1" parent="0xNz1WRSWrmB9gClnGDd-35">
          <mxGeometry x="240" y="20" width="60" height="60" as="geometry" />
        </mxCell>
        <mxCell id="0xNz1WRSWrmB9gClnGDd-9" value="order" style="rounded=1;whiteSpace=wrap;html=1;" vertex="1" parent="0xNz1WRSWrmB9gClnGDd-35">
          <mxGeometry x="330" y="20" width="60" height="60" as="geometry" />
        </mxCell>
        <mxCell id="0xNz1WRSWrmB9gClnGDd-11" value="send to cloud" style="rounded=1;whiteSpace=wrap;html=1;" vertex="1" parent="0xNz1WRSWrmB9gClnGDd-35">
          <mxGeometry x="420" y="20" width="60" height="60" as="geometry" />
        </mxCell>
        <mxCell id="0xNz1WRSWrmB9gClnGDd-12" value="" style="endArrow=classic;html=1;rounded=0;exitX=1;exitY=0.5;exitDx=0;exitDy=0;entryX=0;entryY=0.5;entryDx=0;entryDy=0;" edge="1" parent="0xNz1WRSWrmB9gClnGDd-35" source="0xNz1WRSWrmB9gClnGDd-6" target="0xNz1WRSWrmB9gClnGDd-7">
          <mxGeometry width="50" height="50" relative="1" as="geometry">
            <mxPoint x="130" as="sourcePoint" />
            <mxPoint x="180" y="-50" as="targetPoint" />
          </mxGeometry>
        </mxCell>
        <mxCell id="0xNz1WRSWrmB9gClnGDd-15" value="" style="endArrow=classic;html=1;rounded=0;exitX=1;exitY=0.5;exitDx=0;exitDy=0;entryX=0;entryY=0.5;entryDx=0;entryDy=0;" edge="1" parent="0xNz1WRSWrmB9gClnGDd-35" source="0xNz1WRSWrmB9gClnGDd-7" target="0xNz1WRSWrmB9gClnGDd-8">
          <mxGeometry width="50" height="50" relative="1" as="geometry">
            <mxPoint x="270" y="210" as="sourcePoint" />
            <mxPoint x="320" y="160" as="targetPoint" />
          </mxGeometry>
        </mxCell>
        <mxCell id="0xNz1WRSWrmB9gClnGDd-16" value="" style="endArrow=classic;html=1;rounded=0;exitX=1;exitY=0.5;exitDx=0;exitDy=0;entryX=0;entryY=0.5;entryDx=0;entryDy=0;" edge="1" parent="0xNz1WRSWrmB9gClnGDd-35" source="0xNz1WRSWrmB9gClnGDd-8" target="0xNz1WRSWrmB9gClnGDd-9">
          <mxGeometry width="50" height="50" relative="1" as="geometry">
            <mxPoint x="270" y="210" as="sourcePoint" />
            <mxPoint x="320" y="160" as="targetPoint" />
          </mxGeometry>
        </mxCell>
        <mxCell id="0xNz1WRSWrmB9gClnGDd-17" value="" style="endArrow=classic;html=1;rounded=0;exitX=1;exitY=0.5;exitDx=0;exitDy=0;entryX=0;entryY=0.5;entryDx=0;entryDy=0;" edge="1" parent="0xNz1WRSWrmB9gClnGDd-35" source="0xNz1WRSWrmB9gClnGDd-9" target="0xNz1WRSWrmB9gClnGDd-11">
          <mxGeometry width="50" height="50" relative="1" as="geometry">
            <mxPoint x="270" y="210" as="sourcePoint" />
            <mxPoint x="320" y="160" as="targetPoint" />
          </mxGeometry>
        </mxCell>
        <mxCell id="0xNz1WRSWrmB9gClnGDd-19" value="" style="ellipse;shape=cloud;whiteSpace=wrap;html=1;" vertex="1" parent="0xNz1WRSWrmB9gClnGDd-35">
          <mxGeometry x="670" width="120" height="80" as="geometry" />
        </mxCell>
        <mxCell id="0xNz1WRSWrmB9gClnGDd-20" value="" style="endArrow=classic;html=1;rounded=0;exitX=1;exitY=0.5;exitDx=0;exitDy=0;exitPerimeter=0;entryX=0.16;entryY=0.55;entryDx=0;entryDy=0;entryPerimeter=0;" edge="1" parent="0xNz1WRSWrmB9gClnGDd-35" source="0xNz1WRSWrmB9gClnGDd-18" target="0xNz1WRSWrmB9gClnGDd-19">
          <mxGeometry width="50" height="50" relative="1" as="geometry">
            <mxPoint x="270" y="210" as="sourcePoint" />
            <mxPoint x="320" y="160" as="targetPoint" />
          </mxGeometry>
        </mxCell>
        <mxCell id="0xNz1WRSWrmB9gClnGDd-21" value="push to cloud" style="edgeLabel;html=1;align=center;verticalAlign=middle;resizable=0;points=[];" vertex="1" connectable="0" parent="0xNz1WRSWrmB9gClnGDd-20">
          <mxGeometry x="-0.3345" y="1" relative="1" as="geometry">
            <mxPoint x="17" y="1" as="offset" />
          </mxGeometry>
        </mxCell>
        <mxCell id="0xNz1WRSWrmB9gClnGDd-50" value="" style="group" vertex="1" connectable="0" parent="0xNz1WRSWrmB9gClnGDd-64">
          <mxGeometry width="790" height="90" as="geometry" />
        </mxCell>
        <mxCell id="0xNz1WRSWrmB9gClnGDd-51" value="" style="strokeWidth=2;html=1;shape=mxgraph.flowchart.direct_data;whiteSpace=wrap;" vertex="1" parent="0xNz1WRSWrmB9gClnGDd-50">
          <mxGeometry width="590" height="90" as="geometry" />
        </mxCell>
        <mxCell id="0xNz1WRSWrmB9gClnGDd-52" value="verify checksum" style="rounded=1;whiteSpace=wrap;html=1;" vertex="1" parent="0xNz1WRSWrmB9gClnGDd-50">
          <mxGeometry x="30" y="20" width="90" height="60" as="geometry" />
        </mxCell>
        <mxCell id="0xNz1WRSWrmB9gClnGDd-53" value="unpack" style="rounded=1;whiteSpace=wrap;html=1;" vertex="1" parent="0xNz1WRSWrmB9gClnGDd-50">
          <mxGeometry x="150" y="20" width="60" height="60" as="geometry" />
        </mxCell>
        <mxCell id="0xNz1WRSWrmB9gClnGDd-54" value="verify content" style="rounded=1;whiteSpace=wrap;html=1;" vertex="1" parent="0xNz1WRSWrmB9gClnGDd-50">
          <mxGeometry x="240" y="20" width="60" height="60" as="geometry" />
        </mxCell>
        <mxCell id="0xNz1WRSWrmB9gClnGDd-55" value="order" style="rounded=1;whiteSpace=wrap;html=1;" vertex="1" parent="0xNz1WRSWrmB9gClnGDd-50">
          <mxGeometry x="330" y="20" width="60" height="60" as="geometry" />
        </mxCell>
        <mxCell id="0xNz1WRSWrmB9gClnGDd-56" value="send to cloud" style="rounded=1;whiteSpace=wrap;html=1;" vertex="1" parent="0xNz1WRSWrmB9gClnGDd-50">
          <mxGeometry x="420" y="20" width="60" height="60" as="geometry" />
        </mxCell>
        <mxCell id="0xNz1WRSWrmB9gClnGDd-57" value="" style="endArrow=classic;html=1;rounded=0;exitX=1;exitY=0.5;exitDx=0;exitDy=0;entryX=0;entryY=0.5;entryDx=0;entryDy=0;" edge="1" parent="0xNz1WRSWrmB9gClnGDd-50" source="0xNz1WRSWrmB9gClnGDd-52" target="0xNz1WRSWrmB9gClnGDd-53">
          <mxGeometry width="50" height="50" relative="1" as="geometry">
            <mxPoint x="130" as="sourcePoint" />
            <mxPoint x="180" y="-50" as="targetPoint" />
          </mxGeometry>
        </mxCell>
        <mxCell id="0xNz1WRSWrmB9gClnGDd-58" value="" style="endArrow=classic;html=1;rounded=0;exitX=1;exitY=0.5;exitDx=0;exitDy=0;entryX=0;entryY=0.5;entryDx=0;entryDy=0;" edge="1" parent="0xNz1WRSWrmB9gClnGDd-50" source="0xNz1WRSWrmB9gClnGDd-53" target="0xNz1WRSWrmB9gClnGDd-54">
          <mxGeometry width="50" height="50" relative="1" as="geometry">
            <mxPoint x="270" y="210" as="sourcePoint" />
            <mxPoint x="320" y="160" as="targetPoint" />
          </mxGeometry>
        </mxCell>
        <mxCell id="0xNz1WRSWrmB9gClnGDd-59" value="" style="endArrow=classic;html=1;rounded=0;exitX=1;exitY=0.5;exitDx=0;exitDy=0;entryX=0;entryY=0.5;entryDx=0;entryDy=0;" edge="1" parent="0xNz1WRSWrmB9gClnGDd-50" source="0xNz1WRSWrmB9gClnGDd-54" target="0xNz1WRSWrmB9gClnGDd-55">
          <mxGeometry width="50" height="50" relative="1" as="geometry">
            <mxPoint x="270" y="210" as="sourcePoint" />
            <mxPoint x="320" y="160" as="targetPoint" />
          </mxGeometry>
        </mxCell>
        <mxCell id="0xNz1WRSWrmB9gClnGDd-60" value="" style="endArrow=classic;html=1;rounded=0;exitX=1;exitY=0.5;exitDx=0;exitDy=0;entryX=0;entryY=0.5;entryDx=0;entryDy=0;" edge="1" parent="0xNz1WRSWrmB9gClnGDd-50" source="0xNz1WRSWrmB9gClnGDd-55" target="0xNz1WRSWrmB9gClnGDd-56">
          <mxGeometry width="50" height="50" relative="1" as="geometry">
            <mxPoint x="270" y="210" as="sourcePoint" />
            <mxPoint x="320" y="160" as="targetPoint" />
          </mxGeometry>
        </mxCell>
        <mxCell id="0xNz1WRSWrmB9gClnGDd-61" value="" style="ellipse;shape=cloud;whiteSpace=wrap;html=1;" vertex="1" parent="0xNz1WRSWrmB9gClnGDd-50">
          <mxGeometry x="670" width="120" height="80" as="geometry" />
        </mxCell>
        <mxCell id="0xNz1WRSWrmB9gClnGDd-62" value="" style="endArrow=classic;html=1;rounded=0;exitX=1;exitY=0.5;exitDx=0;exitDy=0;exitPerimeter=0;entryX=0.16;entryY=0.55;entryDx=0;entryDy=0;entryPerimeter=0;" edge="1" parent="0xNz1WRSWrmB9gClnGDd-50" source="0xNz1WRSWrmB9gClnGDd-51" target="0xNz1WRSWrmB9gClnGDd-61">
          <mxGeometry width="50" height="50" relative="1" as="geometry">
            <mxPoint x="270" y="210" as="sourcePoint" />
            <mxPoint x="320" y="160" as="targetPoint" />
          </mxGeometry>
        </mxCell>
        <mxCell id="0xNz1WRSWrmB9gClnGDd-63" value="push to cloud" style="edgeLabel;html=1;align=center;verticalAlign=middle;resizable=0;points=[];" vertex="1" connectable="0" parent="0xNz1WRSWrmB9gClnGDd-62">
          <mxGeometry x="-0.3345" y="1" relative="1" as="geometry">
            <mxPoint x="17" y="1" as="offset" />
          </mxGeometry>
        </mxCell>
        <mxCell id="0xNz1WRSWrmB9gClnGDd-67" value="logs" style="shape=note;whiteSpace=wrap;html=1;backgroundOutline=1;darkOpacity=0.05;" vertex="1" parent="1">
          <mxGeometry x="790" y="490" width="80" height="70" as="geometry" />
        </mxCell>
        <mxCell id="0xNz1WRSWrmB9gClnGDd-69" value="python" style="text;html=1;align=center;verticalAlign=middle;whiteSpace=wrap;rounded=0;" vertex="1" parent="1">
          <mxGeometry x="800" y="210" width="60" height="30" as="geometry" />
        </mxCell>
        <mxCell id="0xNz1WRSWrmB9gClnGDd-70" value="" style="endArrow=classic;html=1;rounded=0;entryX=0;entryY=0;entryDx=25;entryDy=0;entryPerimeter=0;exitX=0.425;exitY=0.996;exitDx=0;exitDy=0;exitPerimeter=0;" edge="1" parent="1" source="0xNz1WRSWrmB9gClnGDd-66" target="0xNz1WRSWrmB9gClnGDd-67">
          <mxGeometry width="50" height="50" relative="1" as="geometry">
            <mxPoint x="810" y="410" as="sourcePoint" />
            <mxPoint x="860" y="360" as="targetPoint" />
          </mxGeometry>
        </mxCell>
        <mxCell id="0xNz1WRSWrmB9gClnGDd-72" value="cron&amp;nbsp;" style="rounded=0;whiteSpace=wrap;html=1;" vertex="1" parent="1">
          <mxGeometry x="770" y="60" width="120" height="60" as="geometry" />
        </mxCell>
        <mxCell id="0xNz1WRSWrmB9gClnGDd-73" value="" style="endArrow=classic;html=1;rounded=0;entryX=1;entryY=0.5;entryDx=0;entryDy=0;exitX=0;exitY=0.5;exitDx=0;exitDy=0;" edge="1" parent="1" source="0xNz1WRSWrmB9gClnGDd-5" target="0xNz1WRSWrmB9gClnGDd-2">
          <mxGeometry width="50" height="50" relative="1" as="geometry">
            <mxPoint x="730" y="410" as="sourcePoint" />
            <mxPoint x="780" y="360" as="targetPoint" />
          </mxGeometry>
        </mxCell>
        <mxCell id="0xNz1WRSWrmB9gClnGDd-74" value="" style="endArrow=classic;html=1;rounded=0;exitX=1;exitY=0.5;exitDx=0;exitDy=0;entryX=0;entryY=0.5;entryDx=0;entryDy=0;entryPerimeter=0;" edge="1" parent="1" source="0xNz1WRSWrmB9gClnGDd-5" target="0xNz1WRSWrmB9gClnGDd-51">
          <mxGeometry width="50" height="50" relative="1" as="geometry">
            <mxPoint x="730" y="410" as="sourcePoint" />
            <mxPoint x="780" y="360" as="targetPoint" />
          </mxGeometry>
        </mxCell>
        <mxCell id="0xNz1WRSWrmB9gClnGDd-75" value="" style="endArrow=classic;html=1;rounded=0;exitX=1;exitY=0.5;exitDx=0;exitDy=0;" edge="1" parent="1" source="0xNz1WRSWrmB9gClnGDd-5">
          <mxGeometry width="50" height="50" relative="1" as="geometry">
            <mxPoint x="730" y="410" as="sourcePoint" />
            <mxPoint x="550" y="350" as="targetPoint" />
          </mxGeometry>
        </mxCell>
        <mxCell id="0xNz1WRSWrmB9gClnGDd-76" value="" style="endArrow=classic;html=1;rounded=0;exitX=1;exitY=0.5;exitDx=0;exitDy=0;entryX=0.006;entryY=0.688;entryDx=0;entryDy=0;entryPerimeter=0;" edge="1" parent="1" source="0xNz1WRSWrmB9gClnGDd-5" target="0xNz1WRSWrmB9gClnGDd-37">
          <mxGeometry width="50" height="50" relative="1" as="geometry">
            <mxPoint x="730" y="410" as="sourcePoint" />
            <mxPoint x="780" y="360" as="targetPoint" />
          </mxGeometry>
        </mxCell>
        <mxCell id="0xNz1WRSWrmB9gClnGDd-77" value="threads" style="text;html=1;align=center;verticalAlign=middle;whiteSpace=wrap;rounded=0;" vertex="1" parent="1">
          <mxGeometry x="490" y="350" width="60" height="30" as="geometry" />
        </mxCell>
        <mxCell id="0xNz1WRSWrmB9gClnGDd-78" value="" style="endArrow=classic;html=1;rounded=0;exitX=0.5;exitY=1;exitDx=0;exitDy=0;entryX=0.5;entryY=0;entryDx=0;entryDy=0;" edge="1" parent="1" source="0xNz1WRSWrmB9gClnGDd-72" target="0xNz1WRSWrmB9gClnGDd-69">
          <mxGeometry width="50" height="50" relative="1" as="geometry">
            <mxPoint x="730" y="410" as="sourcePoint" />
            <mxPoint x="780" y="360" as="targetPoint" />
          </mxGeometry>
        </mxCell>
        <mxCell id="0xNz1WRSWrmB9gClnGDd-79" value="invokes" style="edgeLabel;html=1;align=center;verticalAlign=middle;resizable=0;points=[];" vertex="1" connectable="0" parent="0xNz1WRSWrmB9gClnGDd-78">
          <mxGeometry x="-0.1464" y="-1" relative="1" as="geometry">
            <mxPoint as="offset" />
          </mxGeometry>
        </mxCell>
      </root>
    </mxGraphModel>
  </diagram>
</mxfile>
